<svg width="90" height="90" viewBox="0 0 90 90" fill="none" xmlns="http://www.w3.org/2000/svg">
<circle cx="45" cy="45" r="45" fill="white"/>
<path d="M63.4198 52.7799C62.1475 55.7889 60.1574 58.4403 57.6236 60.5025C55.0898 62.5647 52.0894 63.9748 48.8847 64.6095C45.68 65.2442 42.3687 65.0842 39.2401 64.1435C36.1116 63.2028 33.2611 61.5101 30.9379 59.2132C28.6147 56.9164 26.8895 54.0854 25.9131 50.9678C24.9367 47.8502 24.739 44.5409 25.337 41.3292C25.9351 38.1175 27.3108 35.1012 29.3439 32.544C31.377 29.9868 34.0056 27.9665 36.9998 26.6599" stroke="black" stroke-width="3" stroke-linecap="round" stroke-linejoin="round"/>
<path d="M65 45C65 42.3736 64.4827 39.7728 63.4776 37.3463C62.4725 34.9198 60.9993 32.715 59.1421 30.8579C57.285 29.0007 55.0802 27.5275 52.6537 26.5224C50.2272 25.5173 47.6264 25 45 25V45H65Z" stroke="black" stroke-width="3" stroke-linecap="round" stroke-linejoin="round"/>
</svg>
