<svg width="111" height="48" viewBox="0 0 111 48" fill="none" xmlns="http://www.w3.org/2000/svg">
<path d="M0 24.0294V48H5H10.0294L10 37.9118C9.9706 32.3824 9.9706 25.1765 10 21.8824V15.8824L10.9706 17.1765C11.5 17.8824 16.9412 25.0882 23.0588 33.2059L34.1765 48H38.853H43.5295V24.2059C43.5295 9.35294 43.4118 0.323528 43.2353 0.205883C43.0883 0.117645 40.853 0.117645 38.2353 0.235294L33.5294 0.441177V16C33.5294 24.5588 33.4118 31.5 33.2942 31.4118C33.1471 31.3235 27.7647 24.2353 21.2941 15.6765L9.55883 0.0588226H4.79412H0V24.0294Z" fill="black"/>
<path d="M94.9121 1.88235C92.9121 5.52941 91.1768 8.94118 91.1768 9.20588C91.1768 9.35294 93.1768 9.47059 95.5885 9.47059H100V28.7353V48H105H110.03L109.941 26C109.853 1.67647 109.971 3.11765 107.941 1.44118C106.589 0.294117 105.294 0.0588226 100.383 0.0588226H95.9121L94.9121 1.88235Z" fill="black"/>
<path d="M47.3535 4.73529V9.47059H60.2359C67.8241 9.47059 73.53 9.58823 74.1477 9.76471C75.6771 10.1765 77.53 11.9118 78.0888 13.4412C78.4418 14.3529 78.5594 15.3235 78.4712 16.7941C78.3241 19.3824 77.3241 20.9706 75.1477 22.0882L73.7065 22.8529L60.53 22.9412L47.3535 23.0294V35.5V48H52.2065H57.0594V40.0588V32.1176H61.6182H66.1771V28C66.1771 25.7353 66.2359 23.8824 66.3241 23.8824C66.4124 23.8824 69.4712 25.2941 73.1477 27.0294L79.8241 30.1471L81.3535 29.3529C83.3536 28.2941 86.2947 25.2059 87.2359 23.1765C90.8536 15.2941 87.883 5.79412 80.7065 2.17647C76.9712 0.294117 76.8241 0.264706 61.4124 0.14706L47.3535 0V4.73529Z" fill="black"/>
<path d="M68.5293 31.2352V35.0881L71.3822 38.9705C75.5881 44.7058 76.4411 45.7646 76.5881 45.294C76.6764 45.0881 77.0293 43.6176 77.3822 42.0587C77.9705 39.4117 78.0587 39.2058 78.647 39.3234C79.5881 39.5587 83.9411 40.3528 84.2058 40.3528C84.3234 40.3528 82.9117 38.3528 81.1175 35.9117L77.794 31.4999L73.294 29.4411C70.794 28.3234 68.7352 27.4117 68.6469 27.4117C68.5881 27.4117 68.5293 29.147 68.5293 31.2352Z" fill="black"/>
<path d="M79.5585 42.4705C78.7644 45.7352 78.2938 47.8528 78.3526 47.9411C78.4114 47.9705 81.0585 47.9705 84.235 47.9411L89.9997 47.8528L88.2055 45.3528L86.4408 42.8528L83.735 42.3528C80.0879 41.6764 79.7644 41.6764 79.5585 42.4705Z" fill="black"/>
</svg>
