<svg width="56" height="24" viewBox="0 0 56 24" fill="none" xmlns="http://www.w3.org/2000/svg">
<path d="M0 12.0147V24H2.5H5.0147L5 18.9559C4.98529 16.1912 4.98529 12.5882 5 10.9412V7.94118L5.48529 8.58824C5.74999 8.94118 8.47058 12.5441 11.5294 16.6029L17.0882 24H19.4265H21.7647V12.1029C21.7647 4.67647 21.7059 0.161766 21.6176 0.102943C21.5441 0.058825 20.4265 0.058825 19.1176 0.117648L16.7647 0.22059V8C16.7647 12.2794 16.7059 15.75 16.647 15.7059C16.5735 15.6618 13.8823 12.1176 10.647 7.83824L4.77941 0.0294132H2.39706H0V12.0147Z" fill="#1B5AFF"/>
<path d="M47.4555 0.941178C46.4555 2.76471 45.5879 4.47059 45.5879 4.60294C45.5879 4.67647 46.5879 4.7353 47.7938 4.7353H49.9997V14.3676V24H52.4996H55.0144L54.9702 13C54.9261 0.838237 54.9849 1.55882 53.9702 0.72059C53.2938 0.14706 52.6467 0.0294132 50.1908 0.0294132H47.9555L47.4555 0.941178Z" fill="#1B5AFF"/>
<path d="M23.6768 2.36765V4.73529H30.1179C33.912 4.73529 36.765 4.79412 37.0738 4.88235C37.8385 5.08824 38.765 5.95588 39.0444 6.72059C39.2209 7.17647 39.2797 7.66177 39.2356 8.39706C39.162 9.69118 38.662 10.4853 37.5738 11.0441L36.8532 11.4265L30.265 11.4706L23.6768 11.5147V17.75V24H26.1032H28.5297V20.0294V16.0588H30.8091H33.0885V14C33.0885 12.8676 33.1179 11.9412 33.162 11.9412C33.2062 11.9412 34.7356 12.6471 36.5738 13.5147L39.912 15.0735L40.6767 14.6765C41.6767 14.1471 43.1473 12.6029 43.6179 11.5882C45.4267 7.64706 43.9414 2.89706 40.3532 1.08824C38.4856 0.147059 38.412 0.132354 30.7062 0.0735302L23.6768 1.90735e-06V2.36765Z" fill="#1B5AFF"/>
<path d="M34.2646 15.6176V17.5441L35.6911 19.4853C37.7941 22.3529 38.2205 22.8823 38.2941 22.647C38.3382 22.5441 38.5146 21.8088 38.6911 21.0294C38.9852 19.7059 39.0293 19.6029 39.3235 19.6617C39.7941 19.7794 41.9705 20.1765 42.1029 20.1765C42.1617 20.1765 41.4558 19.1765 40.5588 17.9559L38.897 15.75L36.647 14.7206C35.397 14.1617 34.3676 13.7059 34.3235 13.7059C34.2941 13.7059 34.2646 14.5735 34.2646 15.6176Z" fill="#1B5AFF"/>
<path d="M39.7792 21.2352C39.3822 22.8676 39.1469 23.9264 39.1763 23.9705C39.2057 23.9852 40.5292 23.9852 42.1175 23.9705L44.9998 23.9264L44.1028 22.6764L43.2204 21.4264L41.8675 21.1764C40.0439 20.8382 39.8822 20.8382 39.7792 21.2352Z" fill="#1B5AFF"/>
</svg>
