<svg width="43" height="131" viewBox="0 0 43 131" fill="none" xmlns="http://www.w3.org/2000/svg">
<path d="M13.56 34.48C11.2667 34.48 9.21333 33.92 7.4 32.8C5.58667 31.6533 4.16 30 3.12 27.84C2.08 25.68 1.56 23.0667 1.56 20C1.56 16.9333 2.08 14.32 3.12 12.16C4.16 10 5.58667 8.36 7.4 7.24C9.21333 6.09333 11.2667 5.52 13.56 5.52C15.88 5.52 17.9333 6.09333 19.72 7.24C21.5333 8.36 22.96 10 24 12.16C25.04 14.32 25.56 16.9333 25.56 20C25.56 23.0667 25.04 25.68 24 27.84C22.96 30 21.5333 31.6533 19.72 32.8C17.9333 33.92 15.88 34.48 13.56 34.48ZM13.56 29C14.6533 29 15.6 28.6933 16.4 28.08C17.2267 27.4667 17.8667 26.4933 18.32 25.16C18.8 23.8267 19.04 22.1067 19.04 20C19.04 17.8933 18.8 16.1733 18.32 14.84C17.8667 13.5067 17.2267 12.5333 16.4 11.92C15.6 11.3067 14.6533 11 13.56 11C12.4933 11 11.5467 11.3067 10.72 11.92C9.92 12.5333 9.28 13.5067 8.8 14.84C8.34667 16.1733 8.12 17.8933 8.12 20C8.12 22.1067 8.34667 23.8267 8.8 25.16C9.28 26.4933 9.92 27.4667 10.72 28.08C11.5467 28.6933 12.4933 29 13.56 29ZM32.8722 34V8.4L35.6722 11.2H27.2722V6H39.3522V34H32.8722Z" fill="#1B5AFF"/>
<line x1="23.5" y1="45.5" x2="23.5" y2="129.5" stroke="#F6F6F6" stroke-width="3" stroke-linecap="round"/>
<path d="M25 44C25 43.1716 24.3284 42.5 23.5 42.5C22.6716 42.5 22 43.1716 22 44L23.5 44L25 44ZM23.5 44L22 44L22 76L23.5 76L25 76L25 44L23.5 44Z" fill="#1B5AFF"/>
</svg>
