<svg width="51" height="137" viewBox="0 0 51 137" fill="none" xmlns="http://www.w3.org/2000/svg">
<path d="M13.56 34.48C11.2667 34.48 9.21333 33.92 7.4 32.8C5.58667 31.6533 4.16 30 3.12 27.84C2.08 25.68 1.56 23.0667 1.56 20C1.56 16.9333 2.08 14.32 3.12 12.16C4.16 10 5.58667 8.36 7.4 7.24C9.21333 6.09333 11.2667 5.52 13.56 5.52C15.88 5.52 17.9333 6.09333 19.72 7.24C21.5333 8.36 22.96 10 24 12.16C25.04 14.32 25.56 16.9333 25.56 20C25.56 23.0667 25.04 25.68 24 27.84C22.96 30 21.5333 31.6533 19.72 32.8C17.9333 33.92 15.88 34.48 13.56 34.48ZM13.56 29C14.6533 29 15.6 28.6933 16.4 28.08C17.2267 27.4667 17.8667 26.4933 18.32 25.16C18.8 23.8267 19.04 22.1067 19.04 20C19.04 17.8933 18.8 16.1733 18.32 14.84C17.8667 13.5067 17.2267 12.5333 16.4 11.92C15.6 11.3067 14.6533 11 13.56 11C12.4933 11 11.5467 11.3067 10.72 11.92C9.92 12.5333 9.28 13.5067 8.8 14.84C8.34667 16.1733 8.12 17.8933 8.12 20C8.12 22.1067 8.34667 23.8267 8.8 25.16C9.28 26.4933 9.92 27.4667 10.72 28.08C11.5467 28.6933 12.4933 29 13.56 29ZM37.3978 34.48C35.4511 34.48 33.5178 34.2267 31.5978 33.72C29.6778 33.1867 28.0511 32.44 26.7178 31.48L29.2378 26.52C30.3045 27.2933 31.5445 27.9067 32.9578 28.36C34.3711 28.8133 35.7978 29.04 37.2378 29.04C38.8645 29.04 40.1445 28.72 41.0778 28.08C42.0111 27.44 42.4778 26.56 42.4778 25.44C42.4778 24.3733 42.0645 23.5333 41.2378 22.92C40.4111 22.3067 39.0778 22 37.2378 22H34.2778V17.72L42.0778 8.88L42.7978 11.2H28.1178V6H47.7178V10.2L39.9578 19.04L36.6778 17.16H38.5578C41.9978 17.16 44.5978 17.9333 46.3578 19.48C48.1178 21.0267 48.9978 23.0133 48.9978 25.44C48.9978 27.0133 48.5845 28.4933 47.7578 29.88C46.9311 31.24 45.6645 32.3467 43.9578 33.2C42.2511 34.0533 40.0645 34.48 37.3978 34.48Z" fill="#1B5AFF"/>
<line x1="24.5" y1="51.5" x2="24.5" y2="135.5" stroke="#F6F6F6" stroke-width="3" stroke-linecap="round"/>
<path d="M26 50C26 49.1716 25.3284 48.5 24.5 48.5C23.6716 48.5 23 49.1716 23 50L24.5 50L26 50ZM24.5 50L23 50L23 82L24.5 82L26 82L26 50L24.5 50Z" fill="#1B5AFF"/>
</svg>
