<svg width="51" height="134" viewBox="0 0 51 134" fill="none" xmlns="http://www.w3.org/2000/svg">
<path d="M13.56 34.48C11.2667 34.48 9.21333 33.92 7.4 32.8C5.58667 31.6533 4.16 30 3.12 27.84C2.08 25.68 1.56 23.0667 1.56 20C1.56 16.9333 2.08 14.32 3.12 12.16C4.16 10 5.58667 8.36 7.4 7.24C9.21333 6.09333 11.2667 5.52 13.56 5.52C15.88 5.52 17.9333 6.09333 19.72 7.24C21.5333 8.36 22.96 10 24 12.16C25.04 14.32 25.56 16.9333 25.56 20C25.56 23.0667 25.04 25.68 24 27.84C22.96 30 21.5333 31.6533 19.72 32.8C17.9333 33.92 15.88 34.48 13.56 34.48ZM13.56 29C14.6533 29 15.6 28.6933 16.4 28.08C17.2267 27.4667 17.8667 26.4933 18.32 25.16C18.8 23.8267 19.04 22.1067 19.04 20C19.04 17.8933 18.8 16.1733 18.32 14.84C17.8667 13.5067 17.2267 12.5333 16.4 11.92C15.6 11.3067 14.6533 11 13.56 11C12.4933 11 11.5467 11.3067 10.72 11.92C9.92 12.5333 9.28 13.5067 8.8 14.84C8.34667 16.1733 8.12 17.8933 8.12 20C8.12 22.1067 8.34667 23.8267 8.8 25.16C9.28 26.4933 9.92 27.4667 10.72 28.08C11.5467 28.6933 12.4933 29 13.56 29ZM28.3122 34V29.8L39.1122 19.6C39.9655 18.8267 40.5922 18.1333 40.9922 17.52C41.3922 16.9067 41.6589 16.3467 41.7922 15.84C41.9522 15.3333 42.0322 14.8667 42.0322 14.44C42.0322 13.32 41.6455 12.4667 40.8722 11.88C40.1255 11.2667 39.0189 10.96 37.5522 10.96C36.3789 10.96 35.2855 11.1867 34.2722 11.64C33.2855 12.0933 32.4455 12.8 31.7522 13.76L27.0322 10.72C28.0989 9.12 29.5922 7.85333 31.5122 6.92C33.4322 5.98667 35.6455 5.52 38.1522 5.52C40.2322 5.52 42.0455 5.86667 43.5922 6.56C45.1655 7.22667 46.3789 8.17333 47.2322 9.4C48.1122 10.6267 48.5522 12.0933 48.5522 13.8C48.5522 14.7067 48.4322 15.6133 48.1922 16.52C47.9789 17.4 47.5255 18.3333 46.8322 19.32C46.1655 20.3067 45.1789 21.4133 43.8722 22.64L34.9122 31.08L33.6722 28.72H49.4722V34H28.3122Z" fill="#1B5AFF"/>
<line x1="25.5" y1="48.5" x2="25.5" y2="132.5" stroke="#F6F6F6" stroke-width="3" stroke-linecap="round"/>
<path d="M27 47C27 46.1716 26.3284 45.5 25.5 45.5C24.6716 45.5 24 46.1716 24 47L25.5 47L27 47ZM25.5 47L24 47L24 79L25.5 79L27 79L27 47L25.5 47Z" fill="#1B5AFF"/>
</svg>
